#!OML:ASF F:\VICON\USERDATA\INSTALL\rory3\rory3.ASF
:FULLY-SPECIFIED
:DEGREES
5541
root 1.10479 18.7921 2.40894 -3.04489 17.1281 -8.66909
lowerback 2.2434 3.76931 -0.922543
upperback 0.522615 4.98458 -3.55668
thorax -0.47889 2.49906 -3.25867
lowerneck -4.52673 -8.58264 -10.1733
upperneck -2.26356 -11.2187 19.4544
head 1.86386 -5.40137 7.11796
rclavicle -3.29983e-014 3.18055e-014
rhumerus 82.6264 30.7136 -18.9363
rradius 58.7844
rwrist 39.7238
rhand -48.1111 368.232
rfingers 7.12502
rthumb -20.7752 -20.6758
lclavicle -3.29983e-014 3.18055e-014
lhumerus -15.6822 -5.65846 72.0994
lradius 35.1433
lwrist -5.72838
lhand -34.9791 19.6089
lfingers 7.12502
lthumb -8.12459 49.4327
rfemur -2.968 8.27506 15.6766
rtibia 35.3565
rfoot -8.6716 -26.9675
rtoes 2.40624
lfemur -12.8604 -9.3392 -8.5674
ltibia 29.4823
lfoot -11.5636 -7.34512
ltoes 3.75338
5542
root 1.08161 18.7855 2.40302 -3.01271 16.7009 -8.49076
lowerback 2.38806 3.74097 -1.03524
upperback 0.411375 4.93487 -3.53267
thorax -0.688096 2.47229 -3.18654
lowerneck -4.36254 -8.50457 -10.14
upperneck -2.30565 -11.1175 19.4502
head 1.80663 -5.36169 7.12723
rclavicle -2.84262e-014 -1.27222e-014
rhumerus 82.4427 30.6173 -19.1613
rradius 59.5899
rwrist 39.1861
rhand -47.5572 367.732
rfingers 7.12502
rthumb -20.2428 -21.2329
lclavicle -2.84262e-014 -1.27222e-014
lhumerus -15.7642 -5.53419 72.1634
lradius 35.2297
lwrist -5.68232
lhand -35.107 19.483
lfingers 7.12502
lthumb -8.24804 49.302
rfemur -3.02555 8.54522 15.578
rtibia 35.1875
rfoot -8.90611 -26.1116
rtoes 0.48234
lfemur -12.7539 -9.18218 -8.6709
ltibia 29.4891
lfoot -11.61 -7.10814
ltoes 3.43619
5543
root 1.0593 18.7822 2.4006 -3.00525 16.3175 -8.42783
lowerback 2.52158 3.744 -1.00374
upperback 0.318329 4.93185 -3.52294
thorax -0.856634 2.46926 -3.20832
lowerneck -4.38657 -8.48797 -10.1237
upperneck -2.20842 -11.1114 19.5658
head 1.84501 -5.35321 7.15863
rclavicle -6.44062e-014 9.54166e-015
rhumerus 82.1297 30.373 -19.4557
rradius 60.2819
rwrist 38.644
rhand -47.0814 367.016
rfingers 7.12502
rthumb -19.7855 -21.9969
lclavicle -6.44062e-014 9.54166e-015
lhumerus -15.7348 -5.49107 72.2174
lradius 35.2911
lwrist -5.81267
lhand -34.8443 18.982
lfingers 7.12502
lthumb -7.99449 48.8108
rfemur -3.06436 8.76125 15.6231
rtibia 35.031
rfoot -8.99491 -25.2226
rtoes -1.76259
lfemur -12.664 -8.96747 -8.64957
ltibia 29.4929
lfoot -11.6885 -6.94992
ltoes 2.55308
5544
root 1.04313 18.7814 2.40188 -2.97101 16.0042 -8.32004
lowerback 2.53777 3.75441 -0.903068
upperback 0.279012 4.94642 -3.58046
thorax -0.891748 2.4761 -3.32666
lowerneck -4.39581 -8.50838 -10.0175
upperneck -2.17018 -11.1523 19.6597
head 1.86425 -5.37126 7.16634
rclavicle 3.57812e-014 -3.18055e-015
rhumerus 81.7148 29.987 -19.8294
rradius 60.9061
rwrist 38.0368
rhand -46.9936 366.566
rfingers 7.12502
rthumb -19.7011 -22.456
lclavicle 3.57812e-014 -3.18055e-015
lhumerus -15.5911 -5.69522 72.2456
lradius 35.3435
lwrist -5.83211
lhand -34.595 18.3793
lfingers 7.12502
lthumb -7.75385 48.2171
rfemur -3.0634 8.85507 15.5728
rtibia 34.8281
rfoot -9.39504 -24.3916
rtoes -2.95519
lfemur -12.5782 -8.88729 -8.70616
ltibia 29.5003
lfoot -11.8569 -6.73024
ltoes 1.83144
5545
root 1.02655 18.7774 2.4001 -2.92663 15.6473 -8.06647
lowerback 2.58973 3.7436 -0.952337
upperback 0.235786 4.92693 -3.63804
thorax -0.965245 2.4659 -3.36405
lowerneck -4.41473 -8.51583 -9.85509
upperneck -2.0425 -11.1846 19.5634
head 1.89234 -5.38368 7.10361
rclavicle -3.93594e-014 3.49861e-014
rhumerus 81.398 29.6226 -20.0897
rradius 61.5342
rwrist 37.3604
rhand -46.9584 366.511
rfingers 7.12502
rthumb -19.6673 -22.5143
lclavicle -3.93594e-014 3.49861e-014
lhumerus -15.6097 -5.87084 72.2716
lradius 35.5329
lwrist -5.69824
lhand -35.5002 19.1223
lfingers 7.12502
lthumb -8.62752 48.9261
rfemur -3.07072 9.02043 15.3452
rtibia 34.583
rfoot -9.72699 -23.6091
rtoes -4.68127
lfemur -12.4525 -8.77277 -8.92854
ltibia 29.5003
lfoot -12.0135 -6.51375
ltoes 1.0021
5546
root 1.00607 18.7701 2.39859 -2.91524 15.2724 -7.86266
lowerback 2.6401 3.73126 -0.992185
upperback 0.191533 4.90571 -3.66335
thorax -1.04107 2.4547 -3.37331
lowerneck -4.37172 -8.49484 -9.77736
upperneck -1.98205 -11.1697 19.5248
head 1.8928 -5.37743 7.0807
rclavicle -2.95195e-014 6.36111e-015
rhumerus 81.0845 29.2856 -20.3649
rradius 61.9978
rwrist 37.0257
rhand -47.2744 366.13
rfingers 7.12502
rthumb -19.9711 -22.864
lclavicle -2.95195e-014 6.36111e-015
lhumerus -15.7154 -5.9287 72.3186
lradius 35.8065
lwrist -5.55184
lhand -37.3383 20.8208
lfingers 7.12502
lthumb -10.401 50.5435
rfemur -3.02897 9.29357 15.2398
rtibia 34.3424
rfoot -10.1462 -23.0399
rtoes -6.16018
lfemur -12.2969 -8.6309 -9.08635
ltibia 29.4988
lfoot -12.0755 -6.28307
ltoes 0.581052
5547
root 0.984782 18.7637 2.4001 -2.88861 14.9603 -7.69388
lowerback 2.57702 3.68275 -1.06352
upperback 0.161692 4.83988 -3.63349
thorax -1.0483 2.42168 -3.29776
lowerneck -4.33985 -8.48003 -9.81343
upperneck -1.84192 -11.1713 19.5355
head 1.93062 -5.37507 7.08881
rclavicle -6.12257e-014 2.22639e-014
rhumerus 80.8357 28.9326 -20.5751
rradius 62.4176
rwrist 36.7557
rhand -47.6038 365.956
rfingers 7.12502
rthumb -20.2877 -23.004
lclavicle -6.12257e-014 2.22639e-014
lhumerus -15.7405 -5.75543 72.4103
lradius 35.8304
lwrist -5.58763
lhand -38.4631 21.8773
lfingers 7.12502
lthumb -11.4859 51.5426
rfemur -2.97803 9.49348 15.2063
rtibia 34.1569
rfoot -10.7163 -22.7586
rtoes -5.24721
lfemur -12.1771 -8.58936 -9.19965
ltibia 29.5047
lfoot -12.1687 -6.02243
ltoes 0.300653
5548
root 0.962913 18.7606 2.40147 -2.83056 14.5779 -7.57228
lowerback 2.49477 3.68197 -1.05889
upperback 0.119627 4.84012 -3.61599
thorax -1.04666 2.4215 -3.27814
lowerneck -4.38299 -8.50368 -9.8729
upperneck -1.60309 -11.2371 19.6117
head 2.02515 -5.39625 7.11133
rclavicle 9.43233e-014 -7.95139e-015
rhumerus 80.4138 28.5197 -20.8014
rradius 62.9952
rwrist 36.4088
rhand -47.5774 365.757
rfingers 7.12502
rthumb -20.2623 -23.2063
lclavicle 9.43233e-014 -7.95139e-015
lhumerus -15.6851 -5.69228 72.5014
lradius 35.7819
lwrist -5.67046
lhand -37.6818 21.1412
lfingers 7.12502
lthumb -10.7323 50.8471
rfemur -3.04712 9.63745 15.2106
rtibia 34.0217
rfoot -11.1631 -22.5678
rtoes -4.50652
lfemur -12.101 -8.49836 -9.24986
ltibia 29.5189
lfoot -12.3097 -5.80205
ltoes -0.0250505
5549
root 0.938139 18.7549 2.40027 -2.819 14.2415 -7.39806
lowerback 2.57375 3.69738 -1.05336
upperback 0.0831343 4.85633 -3.68239
thorax -1.12131 2.42905 -3.35764
lowerneck -4.43027 -8.56869 -9.8002
upperneck -1.4447 -11.3534 19.6636
head 2.09541 -5.44537 7.10143
rclavicle 5.11871e-014 -7.63333e-014
rhumerus 79.8499 28.0664 -21.21
rradius 63.4748
rwrist 35.7565
rhand -47.4424 366.049
rfingers 7.12502
rthumb -20.1326 -22.9278
lclavicle 5.11871e-014 -7.63333e-014
lhumerus -15.6204 -5.72332 72.5149
lradius 35.8901
lwrist -5.74533
lhand -35.7114 19.5865
lfingers 7.12502
lthumb -8.83134 49.3817
rfemur -3.10274 9.64878 15.1734
rtibia 33.9234
rfoot -11.4642 -22.5204
rtoes -6.15832
lfemur -11.9978 -8.39408 -9.35659
ltibia 29.5364
lfoot -12.4155 -5.62824
ltoes -0.341117
5550
root 0.913747 18.7496 2.40277 -2.82172 13.9311 -7.19364
lowerback 2.68869 3.71761 -1.02833
upperback -0.0174674 4.8753 -3.82449
thorax -1.27358 2.43713 -3.53194
lowerneck -4.27489 -8.65874 -9.45675
upperneck -1.35134 -11.5123 19.5379
head 2.08958 -5.53119 6.99768
rclavicle 5.96354e-015 1.90833e-014
rhumerus 79.1717 27.6609 -21.7758
rradius 63.8934
rwrist 35.0188
rhand -47.2931 366.273
rfingers 7.12502
rthumb -19.989 -22.7193
lclavicle 5.96354e-015 1.90833e-014
lhumerus -15.7356 -6.00431 72.4508
lradius 36.1327
lwrist -5.59482
lhand -34.6285 19.0564
lfingers 7.12502
lthumb -7.78625 48.8931
rfemur -3.09212 9.57856 15.1075
rtibia 33.8197
rfoot -11.7355 -22.5994
rtoes -8.3143
lfemur -11.8431 -8.34168 -9.50884
ltibia 29.543
lfoot -12.5566 -5.40397
ltoes -0.415367
5551
root 0.886967 18.7462 2.40742 -2.88041 13.5638 -7.11021
lowerback 2.87171 4.40566 -0.412498
upperback -0.353682 5.7888 -4.71802
thorax -1.52008 2.88742 -4.85906
lowerneck -3.22055 -9.21507 -7.27613
upperneck -1.74505 -12.3358 19.2994
head 1.75923 -6.01652 6.56372
rclavicle -1.07642e-013 2.54444e-014
rhumerus 75.9307 26.7142 -23.7374
rradius 64.1971
rwrist 34.4501
rhand -47.3801 365.911
rfingers 7.12502
rthumb -20.0726 -23.0725
lclavicle -1.07642e-013 2.54444e-014
lhumerus -15.2774 -9.14325 71.9331
lradius 36.2026
lwrist -4.97002
lhand -34.645 19.0809
lfingers 7.12502
lthumb -7.80217 48.917
rfemur -3.04728 9.58342 15.2102
rtibia 33.7214
rfoot -11.7633 -22.8121
rtoes -8.16418
lfemur -11.6185 -8.24901 -9.52512
ltibia 29.5291
lfoot -12.7189 -5.1172
ltoes -0.634108
5552
root 0.856001 18.745 2.41131 -2.97683 13.1809 -7.01324
lowerback 2.97856 4.7489 -0.185935
upperback -0.464819 6.24484 -5.10173
thorax -1.59089 3.11308 -5.414
lowerneck -2.8755 -9.4889 -6.24136
upperneck -1.77477 -12.7389 19.1702
head 1.66726 -6.23941 6.34935
rclavicle 1.00187e-013 -9.85972e-014
rhumerus 74.235 25.8827 -24.5173
rradius 64.5361
rwrist 33.5015
rhand -47.6848 365.389
rfingers 7.12502
rthumb -20.3655 -23.5633
lclavicle 1.00187e-013 -9.85972e-014
lhumerus -15.0086 -10.6303 71.6992
lradius 36.3335
lwrist -4.58308
lhand -34.655 19.2038
lfingers 7.12502
lthumb -7.81184 49.0394
rfemur -2.99027 9.63687 15.3457
rtibia 33.6462
rfoot -11.7026 -23.1852
rtoes -6.21453
lfemur -11.3642 -8.10742 -9.53919
ltibia 29.5029
lfoot -12.8154 -4.90925
ltoes -1.22845
